<svg width="60" height="60" viewBox="0 0 119 120" fill="none" xmlns="http://www.w3.org/2000/svg">
<path d="M12.7181 105.69C15.832 104.635 18.9483 103.602 23.1976 101.897C27.4245 100.215 32.787 97.86 36.6594 95.8625C40.5319 93.865 42.8896 92.2275 45.6489 90.59C48.6037 89.2424 51.1749 87.1671 53.1261 84.555C54.4346 81.7271 54.9573 78.594 54.6384 75.49C54.5298 73.9582 54.2757 72.4404 53.8797 70.9575C53.5236 69.468 53.5236 67.9145 53.8797 66.425C54.326 65.035 55.4391 64.0475 52.3922 58.8875C49.3453 53.7275 42.1533 44.37 41.9103 43.0225C41.6426 41.6775 48.3413 48.34 52.3897 52.85C56.4407 57.3375 57.8414 59.7175 59.1331 60.39C59.3726 60.5432 59.6512 60.6229 59.9349 60.6193C60.2185 60.6157 60.4951 60.529 60.7307 60.3698C60.9664 60.2106 61.1511 59.9857 61.2622 59.7225C61.3734 59.4593 61.4063 59.1692 61.3569 58.8875C61.223 57.675 59.8198 56.2825 60.5338 54.96C61.9255 53.4136 63.8039 52.3989 65.8516 52.0875C66.4603 51.9023 67.1154 51.9511 67.6904 52.2244C68.2655 52.4977 68.7198 52.9762 68.9655 53.5675C69.61 54.7125 70.2348 56.35 69.61 57.36C68.9655 58.3925 67.1185 58.775 65.8739 59.695C64.6269 60.5925 63.9823 62.0275 64.9393 62.005C65.9186 61.9825 68.4994 60.5025 71.1025 59.6275C73.322 59.0048 75.573 58.5024 77.8458 58.1225C79.3358 57.765 79.7374 57.315 82.3182 56.62C85.253 55.797 88.2666 55.2933 91.3077 55.1175C92.8869 55.2525 91.2185 56.4625 89.0591 57.36C86.9022 58.28 84.2545 58.91 82.3158 59.6275C80.4068 60.3675 79.1821 61.22 77.0897 61.8925C74.769 62.4069 72.5087 63.167 70.3464 64.16C68.7002 65.235 68.3878 66.875 67.3664 68.6925C66.345 70.51 64.6071 72.4825 64.5178 73.9875C64.4063 75.4875 65.9186 76.5 66.6102 77.755C67.3019 79.01 67.1879 80.4925 68.2118 81.6375C70.0382 83.0604 72.0075 84.2863 74.0874 85.295C76.7773 86.955 79.9606 89.3775 82.2067 90.5225C84.4751 91.6675 85.7891 91.4875 88.236 92.655C91.2173 94.4406 94.3179 96.0152 97.5155 97.3675C100.83 98.42 103.88 98.0175 104.923 98.825C105.967 99.6325 105.013 101.65 103.255 102.19C101.328 102.492 99.3571 102.095 97.694 101.067C96.447 100.327 96.5363 99.7425 94.1786 98.825C91.8407 97.905 87.0807 96.67 82.3406 94.9C77.5806 93.125 72.8627 90.86 68.8564 89.825C65.6766 88.926 62.3129 88.926 59.1331 89.825C57.0455 90.6531 55.0352 91.6671 53.1261 92.855C51.2345 93.775 49.0974 94.36 46.4075 95.8625C43.3385 97.9447 40.0744 99.7182 36.6619 101.157C32.8787 102.437 28.5848 102.527 26.1825 103.425C23.7802 104.322 23.2893 106.005 22.4439 106.43C21.5985 106.855 20.3738 106.027 18.7053 105.69C16.7178 105.431 14.7056 105.431 12.7181 105.69V105.69Z" stroke="black" stroke-width="3" stroke-linecap="round" stroke-linejoin="round"/>
<path d="M12.4082 61.9825C12.2276 55.718 13.2781 49.4795 15.4991 43.6263C17.7202 37.7731 21.0679 32.4209 25.3495 27.8783C29.631 23.3356 34.7616 19.6923 40.4458 17.1582C46.1299 14.624 52.2552 13.2493 58.4686 13.113C64.682 12.9768 70.8607 14.0818 76.6487 16.3644C82.4367 18.647 87.7195 22.062 92.1928 26.4127C96.6661 30.7634 100.241 35.9638 102.713 41.7141C105.184 47.4644 106.502 53.651 106.592 59.9175C106.608 60.6058 106.608 61.2942 106.592 61.9825" stroke="black" stroke-width="3" stroke-linecap="round" stroke-linejoin="round"/>
</svg>
