<svg width="73" height="67" viewBox="0 0 73 67" fill="none" xmlns="http://www.w3.org/2000/svg">
<path fill-rule="evenodd" clip-rule="evenodd" d="M6.8125 0.875C5.23778 0.875 3.72755 1.44788 2.61405 2.46761C1.50056 3.48734 0.875 4.87039 0.875 6.3125V60.6875C0.875 62.1296 1.50056 63.5127 2.61405 64.5324C3.72755 65.5521 5.23778 66.125 6.8125 66.125H66.1875C67.7622 66.125 69.2724 65.5521 70.3859 64.5324C71.4994 63.5127 72.125 62.1296 72.125 60.6875V6.3125C72.125 4.87039 71.4994 3.48734 70.3859 2.46761C69.2724 1.44788 67.7622 0.875 66.1875 0.875H6.8125ZM52.3333 19H46.3958V48H52.3333V19ZM56.2917 24.4375H62.2292V31.6875H64.2083V35.3125H62.2292V42.5625H56.2917V24.4375ZM20.6667 48H26.6042V19H20.6667V48ZM16.7083 42.5625H10.7708V35.3125H8.79167V31.6875H10.7708V24.4375H16.7083V42.5625ZM30.5625 35.3125H42.4375V31.6875H30.5625V35.3125Z" fill="#0FA50F"/>
</svg>
